HIERARCHY
ROOT Hips
{
    OFFSET 0.000000 0.000000 0.000000
    CHANNELS 6 Xposition Yposition Zposition Zrotation Xrotation Yrotation
    JOINT Spine
    {
        OFFSET -0.000000 7.246840 0.000000
        CHANNELS 3 Zrotation Xrotation Yrotation
        JOINT Spine1
        {
            OFFSET -0.000000 20.289354 0.000000
            CHANNELS 3 Zrotation Xrotation Yrotation
            JOINT Neck
            {
                OFFSET -0.000000 20.206032 1.836912
                CHANNELS 3 Zrotation Xrotation Yrotation
                JOINT Head
                {
                    OFFSET -0.000000 12.372654 -1.767522
                    CHANNELS 3 Zrotation Xrotation Yrotation
                    End Site
                    {
                        OFFSET -0.000000 22.094025 0.000000
                    }
                }
            }
            JOINT LeftShoulder
            {
                OFFSET 3.465871 17.201674 -0.568930
                CHANNELS 3 Zrotation Xrotation Yrotation
                JOINT LeftArm
                {
                    OFFSET 14.070313 0.000000 0.000000
                    CHANNELS 3 Zrotation Xrotation Yrotation
                    JOINT LeftForeArm
                    {
                        OFFSET 26.549477 0.000000 0.000000
                        CHANNELS 3 Zrotation Xrotation Yrotation
                        JOINT LeftHand
                        {
                            OFFSET 18.880413 0.000000 0.000000
                            CHANNELS 3 Zrotation Xrotation Yrotation
                            End Site
                            {
                                OFFSET 13.256415 0.000000 0.000000
                            }
                        }
                    }
                }
            }
            JOINT RightShoulder
            {
                OFFSET -3.526370 17.201674 -0.568930
                CHANNELS 3 Zrotation Xrotation Yrotation
                JOINT RightArm
                {
                    OFFSET -14.070313 0.000000 0.000000
                    CHANNELS 3 Zrotation Xrotation Yrotation
                    JOINT RightForeArm
                    {
                        OFFSET -26.549477 0.000000 0.000000
                        CHANNELS 3 Zrotation Xrotation Yrotation
                        JOINT RightHand
                        {
                            OFFSET -18.880413 0.000000 0.000000
                            CHANNELS 3 Zrotation Xrotation Yrotation
                            End Site
                            {
                                OFFSET -13.256415 0.000000 0.000000
                            }
                        }
                    }
                }
            }
        }
    }
    JOINT LeftUpLeg
    {
        OFFSET 8.837609 0.000000 0.000000
        CHANNELS 3 Zrotation Xrotation Yrotation
        JOINT LeftLeg
        {
            OFFSET -0.000000 -41.345005 0.000000
            CHANNELS 3 Zrotation Xrotation Yrotation
            JOINT LeftFoot
            {
                OFFSET -0.000000 -35.500874 0.000000
                CHANNELS 3 Zrotation Xrotation Yrotation
                JOINT LeftToeBase
                {
                    OFFSET -0.000000 -5.744446 13.256415
                    CHANNELS 3 Zrotation Xrotation Yrotation
                    End Site
                    {
                        OFFSET -0.000000 0.000000 3.535044
                    }
                }
            }
        }
    }
    JOINT RightUpLeg
    {
        OFFSET -8.837609 0.000000 0.000000
        CHANNELS 3 Zrotation Xrotation Yrotation
        JOINT RightLeg
        {
            OFFSET -0.000000 -41.345005 0.000000
            CHANNELS 3 Zrotation Xrotation Yrotation
            JOINT RightFoot
            {
                OFFSET -0.000000 -35.500874 0.000000
                CHANNELS 3 Zrotation Xrotation Yrotation
                JOINT RightToeBase
                {
                    OFFSET -0.000000 -5.744446 13.256415
                    CHANNELS 3 Zrotation Xrotation Yrotation
                    End Site
                    {
                        OFFSET -0.000000 0.000000 3.535044
                    }
                }
            }
        }
    }
}
MOTION
Frames:    10
Frame Time:    0.010000
3.867527    82.332146    -68.797874    4.224062    4.726603    -1.800829    -5.552738    -12.796226    -1.308787    3.464953    2.797248    -0.770354    0.708226    32.167389    -2.110231    0.355639    -14.802188    -1.987819    18.364290    1.054776    6.625384    -41.955235    11.548498    -5.557871    4.708293    -4.990810    -10.305437    -5.737164    -3.995461    -11.409522    -15.921576    1.300118    9.014749    23.317051    1.845037    7.882895    -5.599222    -9.678974    10.618355    4.096867    -8.735739    12.111159    -0.786230    4.312157    0.988226    -1.854258    -9.605994    -1.930603    1.373478    3.290361    -2.169039    -0.920040    -1.134119    1.296828    -11.971639    3.839386    0.125347    8.117850    -9.776049    2.856192    2.459662    -1.673064    -6.473731    -0.534424    2.285465    0.935571    
3.867587    82.332855    -68.793144    4.220939    4.728124    -1.826410    -5.557549    -12.825154    -1.288703    3.429279    2.843928    -0.748781    0.730029    32.117821    -2.107963    0.384903    -14.817387    -1.974544    18.361420    1.009046    6.615955    -42.095592    11.523449    -5.464815    4.692939    -4.977306    -10.277244    -5.602033    -3.991403    -11.543116    -15.882500    1.313521    9.015106    23.439154    1.893278    7.850644    -5.648270    -9.709452    10.644915    4.256963    -8.747808    11.999876    -0.792993    4.321449    1.007152    -1.828141    -9.617995    -1.926723    1.319687    3.300617    -2.180003    -0.948455    -1.140387    1.336930    -11.968702    3.836671    0.128004    8.136086    -9.769008    2.824095    2.506049    -1.704862    -6.444302    -0.501558    2.395428    0.877043    
3.869173    82.333908    -68.790100    4.219860    4.733389    -1.851295    -5.560112    -12.845820    -1.269644    3.399179    2.874686    -0.728550    0.704574    32.075600    -2.096375    0.450046    -14.843294    -1.949219    18.320539    1.032720    6.641115    -42.186428    11.547739    -5.445892    4.672089    -4.899114    -10.270568    -5.480531    -3.924289    -11.610625    -15.863850    1.307387    9.011456    23.537645    1.949252    7.822835    -5.640165    -9.669703    10.634090    4.344730    -8.699741    12.009542    -0.787254    4.321117    0.953635    -1.827201    -9.616138    -1.885911    1.334884    3.291746    -2.150014    -0.936395    -1.126636    1.319820    -11.965755    3.827394    0.136292    8.127168    -9.775863    2.820941    2.502050    -1.682760    -6.431886    -0.518121    2.346432    0.906461    
3.873202    82.332794    -68.787094    4.216085    4.737368    -1.871462    -5.553157    -12.857149    -1.253944    3.358457    2.887982    -0.712424    0.708207    32.098846    -2.128134    0.499783    -14.950501    -1.967735    18.281336    1.058357    6.659894    -42.253521    11.454707    -5.434082    4.571496    -4.744633    -10.261765    -5.307230    -3.794875    -11.647971    -15.857214    1.303538    9.020560    23.621027    2.030203    7.783103    -5.631705    -9.643991    10.646631    4.443227    -8.663093    12.029323    -0.785347    4.320770    0.959355    -1.837766    -9.610416    -1.833736    1.356641    3.272576    -2.167916    -0.917119    -1.095491    1.292407    -11.964494    3.818196    0.135782    8.130214    -9.776727    2.816700    2.447599    -1.652226    -6.437744    -0.562296    2.287039    0.984345    
3.876667    82.331558    -68.781555    4.212084    4.735185    -1.883437    -5.547084    -12.867645    -1.241815    3.318125    2.906871    -0.700010    0.745049    32.070786    -2.122262    0.483073    -14.989079    -1.960376    18.243532    1.067491    6.698386    -42.330025    11.461671    -5.436203    4.409891    -4.926210    -10.333131    -4.782719    -4.022090    -12.118108    -15.853288    1.295600    9.030952    23.685091    2.128370    7.738107    -5.627918    -9.645700    10.678086    4.466074    -8.660077    12.059008    -0.778951    4.325019    0.943239    -1.856094    -9.596999    -1.801007    1.399319    3.236455    -2.167331    -0.938387    -1.063278    1.322116    -11.965206    3.818099    0.149405    8.131607    -9.762962    2.869647    2.493900    -1.694437    -6.473522    -0.528612    2.375199    0.924541    
3.879532    82.330658    -68.778923    4.200701    4.740152    -1.892287    -5.521729    -12.870025    -1.230023    3.249210    2.899219    -0.689070    0.744838    32.061474    -2.114569    0.558626    -15.037377    -1.931920    18.214830    1.096768    6.718679    -42.369953    11.483264    -5.420830    4.576972    -4.510703    -10.190139    -5.258791    -3.558761    -11.846952    -15.837637    1.304484    9.041284    23.746937    2.174549    7.702077    -5.645153    -9.620509    10.726711    4.444000    -8.632881    12.065296    -0.792292    4.337345    1.030938    -1.813509    -9.631077    -1.853224    1.356966    3.255332    -2.198150    -0.925358    -1.090368    1.303976    -11.955644    3.810173    0.167382    8.112346    -9.773031    2.894125    2.511409    -1.664009    -6.461282    -0.495543    2.287596    0.867488    
3.884826    82.328651    -68.773666    4.195145    4.734478    -1.898265    -5.505692    -12.859897    -1.220498    3.203347    2.890651    -0.680440    0.730781    32.035763    -2.108518    0.603965    -15.064415    -1.915662    18.168877    1.095500    6.748333    -42.404652    11.549433    -5.393142    4.380642    -4.624678    -10.293869    -4.706548    -3.733249    -12.098073    -15.853576    1.285594    9.044039    23.809919    2.248920    7.668492    -5.672970    -9.622684    10.774226    4.370774    -8.635778    12.117913    -0.794490    4.350056    1.046706    -1.816973    -9.639957    -1.823403    1.382237    3.245604    -2.234950    -0.944613    -1.087748    1.331086    -11.957717    3.813176    0.168044    8.117494    -9.764789    2.898230    2.553349    -1.692785    -6.446836    -0.459855    2.315669    0.804781    
3.888855    82.327805    -68.770615    4.186581    4.743090    -1.891187    -5.500583    -12.857302    -1.218896    3.172533    2.870750    -0.678197    0.729349    32.005608    -2.115271    0.644136    -15.072793    -1.912248    18.148167    1.090417    6.780263    -42.484612    11.591813    -5.369936    4.552222    -4.354542    -10.205885    -5.123924    -3.418407    -11.837624    -15.864231    1.317784    9.033126    23.824184    2.295765    7.674281    -5.706594    -9.630062    10.816397    4.324357    -8.641398    12.155287    -0.768797    4.335098    0.984056    -1.842175    -9.617544    -1.883392    1.376963    3.222412    -2.125304    -0.937322    -1.064719    1.320627    -11.953613    3.805650    0.175504    8.137204    -9.749213    2.809392    2.531091    -1.713938    -6.436395    -0.530365    2.378810    0.927573    
3.893548    82.326355    -68.766884    4.178077    4.741796    -1.885917    -5.481777    -12.850580    -1.210867    3.132190    2.864729    -0.671484    0.663747    31.879770    -2.046817    0.729019    -14.966757    -1.829892    18.105885    1.086624    6.790866    -42.517323    11.627984    -5.327191    4.384048    -4.547394    -10.319362    -4.741341    -3.648893    -12.145804    -15.879926    1.312257    9.020187    23.821573    2.397141    7.674127    -5.758146    -9.670035    10.835152    4.315795    -8.675789    12.177361    -0.778248    4.349437    1.048038    -1.826642    -9.641758    -1.893140    1.367727    3.228848    -2.175801    -0.938899    -1.083218    1.322999    -11.950027    3.804742    0.185653    8.137743    -9.733110    2.821356    2.480916    -1.709112    -6.467774    -0.552069    2.357198    0.965745    
3.899904    82.324615    -68.762756    4.181572    4.741266    -1.876238    -5.482080    -12.850746    -1.208346    3.092191    2.866049    -0.667841    0.671379    31.836655    -2.044337    0.757136    -14.970582    -1.818886    18.081884    1.109171    6.809896    -42.569836    11.598885    -5.319289    4.388489    -4.621861    -10.281857    -4.774055    -3.710441    -12.397210    -15.885366    1.323708    9.014314    23.786589    2.469924    7.676922    -5.803702    -9.714005    10.856208    4.401871    -8.703850    12.219111    -0.786078    4.355549    1.034983    -1.824599    -9.651733    -1.907206    1.366950    3.243382    -2.155783    -0.927106    -1.108652    1.306585    -11.961867    3.805523    0.192812    8.140903    -9.731136    2.803660    2.516849    -1.731427    -6.436841    -0.502342    2.344800    0.878872    
